<svg xmlns="http://www.w3.org/2000/svg" width="1024" height="1536" viewBox="0 0 1024 1536" fill="none"><title>月蚀圣龛 · 血月 · 狼人 · compact</title>
<defs>
<linearGradient id="metal" x1="0" y1="0" x2="1" y2="1"><stop stop-color="#e7dfc7"/><stop offset=".1" stop-color="#899393"/><stop offset=".22" stop-color="#292f33"/><stop offset=".39" stop-color="#ad9d7a"/><stop offset=".44" stop-color="#e6dbc0"/><stop offset=".50" stop-color="#444942"/><stop offset=".69" stop-color="#121923"/><stop offset=".84" stop-color="#8c8981"/><stop offset="1" stop-color="#252b32"/></linearGradient>
<linearGradient id="edge" x1="0" x2="1" y1="0" y2="1"><stop stop-color="#fff2ca"/><stop offset=".24" stop-color="#a9956f"/><stop offset=".52" stop-color="#3c3d3c"/><stop offset=".74" stop-color="#c5bfa9"/><stop offset="1" stop-color="#6b726e"/></linearGradient>
<linearGradient id="iron" x1="0" x2="1"><stop stop-color="#050b13"/><stop offset=".2" stop-color="#3b4143"/><stop offset=".35" stop-color="#777568"/><stop offset=".42" stop-color="#252d31"/><stop offset=".72" stop-color="#111820"/><stop offset=".87" stop-color="#62686a"/><stop offset="1" stop-color="#0a1018"/></linearGradient>
<radialGradient id="jewel" cx=".34" cy=".25" r=".85"><stop stop-color="#ffb0ab"/><stop offset=".18" stop-color="#a81532"/><stop offset=".58" stop-color="#260914"/><stop offset=".86" stop-color="#a81532"/><stop offset="1" stop-color="#060b12"/></radialGradient>
<linearGradient id="plaque" x1="0" y1="0" x2="0" y2="1"><stop stop-color="#202733"/><stop offset=".5" stop-color="#0b111c"/><stop offset="1" stop-color="#03070c"/></linearGradient>
<pattern id="etch" width="13" height="13" patternUnits="userSpaceOnUse" patternTransform="rotate(28)"><path d="M0 0V13" stroke="#ffffff" stroke-opacity=".055" stroke-width="1"/><path d="M5 0V13" stroke="#000000" stroke-opacity=".18" stroke-width="2"/></pattern>
<path id="ornament" d="M100 132Q69 169 87 205Q109 229 136 202Q149 183 134 167Q118 155 107 168Q97 184 113 191M82 240Q101 222 119 233Q142 254 109 282M106 134Q119 105 102 80Q85 109 106 134M101 280Q78 299 89 326L116 348Q104 317 121 300"/>
</defs><path d="M38 6H986L1018 42V1494L986 1530H38L6 1494V42Z M68 105V1414H956V105Z" fill="url(#iron)" fill-rule="evenodd" stroke="url(#metal)" stroke-width="14"/><rect x="67" y="105" width="890" height="1309" rx="8" fill="none" stroke="#be5461" stroke-width="8"/><path d="M26 83V30H168M856 30H998V83M26 1453V1507H168M856 1507H998V1453" stroke="#dfd5b8" stroke-width="10" fill="none"/><path d="M474 18H550L574 55L550 92H474L450 55Z" fill="url(#jewel)" stroke="#c4b791" stroke-width="6"/><path d="M460 1480H564" stroke="#be5461" stroke-width="13"/>
</svg>

